<mxfile host="app.diagrams.net" modified="2024-01-26T15:14:50.103Z" agent="Mozilla/5.0 (Macintosh; Intel Mac OS X 10_15_7) AppleWebKit/537.36 (KHTML, like Gecko) Chrome/121.0.0.0 Safari/537.36" version="22.1.21" etag="tBG0eSuW1T2SZ8hgkqBh" type="github">
  <diagram name="第 1 页" id="mdLFMPFbn0v2oN_X_4D9">
    <mxGraphModel>
      <root>
        <mxCell id="0" />
        <mxCell id="1" parent="0" />
      </root>
    </mxGraphModel>
  </diagram>
</mxfile>
